<svg xmlns="http://www.w3.org/2000/svg" xmlns:xlink="http://www.w3.org/1999/xlink" viewBox="0 0 500 500"><defs><clipPath id="freepik--clip-path--inject-15"><path d="M386.79,81.26a14.69,14.69,0,0,0-25-2.38,20,20,0,0,0-34.54.41l-.68,0a21.33,21.33,0,0,0-7.43,1.34,27.2,27.2,0,0,0-23-16.54,21.82,21.82,0,0,0-37.06-3.53,29.69,29.69,0,0,0-51.3.61l-1,0a31.48,31.48,0,0,0-29.42,20.29c-.4-.06-.8-.12-1.2-.15a14.7,14.7,0,0,0-25-2.38,20,20,0,0,0-34.53.41l-.68,0A21.2,21.2,0,1,0,131.51,115a14.68,14.68,0,0,0,18.78,2.4,14.68,14.68,0,0,0,21.49.16,18.22,18.22,0,0,0,12.9-2.62,31.45,31.45,0,0,0,45.11-.76,21.8,21.8,0,0,0,27.89,3.57,21.82,21.82,0,0,0,31.92.24,27.2,27.2,0,0,0,20.22-4.6A21.18,21.18,0,0,0,342.06,115a14.68,14.68,0,0,0,18.78,2.4,14.66,14.66,0,0,0,21.48.16,18.3,18.3,0,1,0,4.47-36.28Z" style="fill:#263238"></path></clipPath><clipPath id="freepik--clip-path-2--inject-15"><path d="M236.6,169.12s-24.13,1.69-38,6.78-25.77,21.94-25.77,21.94,3.54,8-.11,15.13c0,0,34.66,3.1,51.52,14.27,0,0,38.52-10.9,67.2-3.85,0,0,8-13.86,23.57-17.18A111.84,111.84,0,0,0,296,186C284.54,176.74,253.76,170.67,236.6,169.12Z" style="fill:#263238;stroke:#263238;stroke-linecap:round;stroke-linejoin:round"></path></clipPath></defs><g id="freepik--background-simple--inject-15"><path d="M297.65,74.56c-43.4-1.77-89.4-2.53-131.56,10.23-43.48,13.15-73.35,47.83-81.84,90.62a123.05,123.05,0,0,0,1.36,53.33c2.14,8.64,4.88,18.51,9.7,26.18,8.35,13.26,19.9,26.27,18.1,43.22-2,18.52-14.85,34.47-13.92,53.59,1.77,36.44,82,82.38,200.69,62S426.8,342.4,408.23,300s-21.24-35.6-1.77-76.28S408.43,79.07,297.65,74.56Z" style="fill:#2F80ED"></path><path d="M297.65,74.56c-43.4-1.77-89.4-2.53-131.56,10.23-43.48,13.15-73.35,47.83-81.84,90.62a123.05,123.05,0,0,0,1.36,53.33c2.14,8.64,4.88,18.51,9.7,26.18,8.35,13.26,19.9,26.27,18.1,43.22-2,18.52-14.85,34.47-13.92,53.59,1.77,36.44,82,82.38,200.69,62S426.8,342.4,408.23,300s-21.24-35.6-1.77-76.28S408.43,79.07,297.65,74.56Z" style="fill:#fff;opacity:0.7000000000000001"></path></g><g id="freepik--twitter-icon--inject-15"><path d="M117,333.53a156.21,156.21,0,0,0,84.6,24.8c102.46,0,160.35-86.54,156.86-164.17A111.84,111.84,0,0,0,386,165.59a110.26,110.26,0,0,1-31.7,8.69,55.24,55.24,0,0,0,24.26-30.53,110.48,110.48,0,0,1-35,13.4,55.23,55.23,0,0,0-94,50.34,156.62,156.62,0,0,1-113.75-57.67,55.26,55.26,0,0,0,17.08,73.69,55,55,0,0,1-25-6.91c-.6,25.57,17.72,49.48,44.26,54.81a55.2,55.2,0,0,1-24.91.95,55.21,55.21,0,0,0,51.55,38.32A110.92,110.92,0,0,1,117,333.53Z" style="fill:#2F80ED"></path><path d="M117,333.53a156.21,156.21,0,0,0,84.6,24.8c102.46,0,160.35-86.54,156.86-164.17A111.84,111.84,0,0,0,386,165.59a110.26,110.26,0,0,1-31.7,8.69,55.24,55.24,0,0,0,24.26-30.53,110.48,110.48,0,0,1-35,13.4,55.23,55.23,0,0,0-94,50.34,156.62,156.62,0,0,1-113.75-57.67,55.26,55.26,0,0,0,17.08,73.69,55,55,0,0,1-25-6.91c-.6,25.57,17.72,49.48,44.26,54.81a55.2,55.2,0,0,1-24.91.95,55.21,55.21,0,0,0,51.55,38.32A110.92,110.92,0,0,1,117,333.53Z" style="fill:#fff;opacity:0.4"></path></g><g id="freepik--Cloud--inject-15"><path d="M386.79,81.26a14.69,14.69,0,0,0-25-2.38,20,20,0,0,0-34.54.41l-.68,0a21.33,21.33,0,0,0-7.43,1.34,27.2,27.2,0,0,0-23-16.54,21.82,21.82,0,0,0-37.06-3.53,29.69,29.69,0,0,0-51.3.61l-1,0a31.48,31.48,0,0,0-29.42,20.29c-.4-.06-.8-.12-1.2-.15a14.7,14.7,0,0,0-25-2.38,20,20,0,0,0-34.53.41l-.68,0A21.2,21.2,0,1,0,131.51,115a14.68,14.68,0,0,0,18.78,2.4,14.68,14.68,0,0,0,21.49.16,18.22,18.22,0,0,0,12.9-2.62,31.45,31.45,0,0,0,45.11-.76,21.8,21.8,0,0,0,27.89,3.57,21.82,21.82,0,0,0,31.92.24,27.2,27.2,0,0,0,20.22-4.6A21.18,21.18,0,0,0,342.06,115a14.68,14.68,0,0,0,18.78,2.4,14.66,14.66,0,0,0,21.48.16,18.3,18.3,0,1,0,4.47-36.28Z" style="fill:#263238"></path><g style="clip-path:url(#freepik--clip-path--inject-15)"><path d="M386.79,81.26a14.69,14.69,0,0,0-25-2.38,20,20,0,0,0-34.54.41l-.68,0a21.33,21.33,0,0,0-7.43,1.34,27.2,27.2,0,0,0-23-16.54,21.82,21.82,0,0,0-37.06-3.53,29.69,29.69,0,0,0-51.3.61l-1,0a31.48,31.48,0,0,0-29.42,20.29c-.4-.06-.8-.12-1.2-.15a14.7,14.7,0,0,0-25-2.38,20,20,0,0,0-34.53.41l-.68,0A21.2,21.2,0,1,0,131.51,115a14.68,14.68,0,0,0,18.78,2.4,14.68,14.68,0,0,0,21.49.16,18.22,18.22,0,0,0,12.9-2.62,31.45,31.45,0,0,0,45.11-.76,21.8,21.8,0,0,0,27.89,3.57,21.82,21.82,0,0,0,31.92.24,27.2,27.2,0,0,0,20.22-4.6A21.18,21.18,0,0,0,342.06,115a14.68,14.68,0,0,0,18.78,2.4,14.66,14.66,0,0,0,21.48.16,18.3,18.3,0,1,0,4.47-36.28Z" style="fill:#fff;opacity:0.2"></path></g><polygon points="239.17 99.49 232.8 116.48 242.01 116.48 230.68 144.8 255.46 115.07 245.55 110.82 256.87 95.95 239.17 99.49" style="fill:#2F80ED"></polygon><path d="M386.79,89.35a14.69,14.69,0,0,0-25-2.37,20,20,0,0,0-34.54.4h-.68a21.1,21.1,0,0,0-7.43,1.34,27.19,27.19,0,0,0-23-16.54,21.82,21.82,0,0,0-37.06-3.53,29.69,29.69,0,0,0-51.3.6l-1,0A31.48,31.48,0,0,0,177.45,89.5c-.4,0-.8-.12-1.2-.15a14.7,14.7,0,0,0-25-2.37,20,20,0,0,0-34.53.4h-.68a21.15,21.15,0,0,0-17.57,9.34,21.19,21.19,0,0,0,33,2.67,14.68,14.68,0,0,0,18.78,2.4,14.68,14.68,0,0,0,21.49.16,18.22,18.22,0,0,0,12.9-2.62,31.47,31.47,0,0,0,45.11-.76,21.81,21.81,0,0,0,27.89,3.56,21.81,21.81,0,0,0,31.92.25,28.28,28.28,0,0,0,4.54.38,27.09,27.09,0,0,0,15.68-5,21.19,21.19,0,0,0,32.24,1.61,14.68,14.68,0,0,0,18.78,2.4,14.66,14.66,0,0,0,21.48.16,18.25,18.25,0,0,0,17-6.19A18.27,18.27,0,0,0,386.79,89.35Z" style="fill:#263238"></path></g><g id="freepik--Shadow--inject-15"><ellipse cx="249.43" cy="437.3" rx="66.79" ry="12.38" style="fill:#2F80ED"></ellipse><ellipse cx="249.43" cy="437.3" rx="66.79" ry="12.38" style="fill:#fff;opacity:0.5"></ellipse></g><g id="freepik--Character--inject-15"><path d="M216.82,273.55s3.51,3.91,5.27,6.06,6.25,1.17,6.25,1.17l4.29,2.54,3.32-5.47s-2.93-3.12-4.49-4.49-5.08-3.91-8-3.52S216.62,270.43,216.82,273.55Z" style="fill:#2F80ED;stroke:#263238;stroke-linecap:round;stroke-linejoin:round"></path><path d="M214.72,264.76l-4.87,3.81a1.22,1.22,0,0,0,.1,2l13.75,8.71a1.37,1.37,0,0,0,1.66-.16l3.93-3.73a1.21,1.21,0,0,0-.16-1.9l-12.8-8.79A1.38,1.38,0,0,0,214.72,264.76Z" style="fill:#263238"></path><polygon points="215.91 266.19 212.16 268.97 223.62 276.89 227.79 273.92 215.91 266.19" style="fill:#fff;stroke:#263238;stroke-linecap:round;stroke-linejoin:round"></polygon><path d="M231.46,273.36s-4.69-6.05-6.25-6.05a14.71,14.71,0,0,0-4.68,1.36c-1,.39-2.93,1.76-1,2.35a11.15,11.15,0,0,0,4.88-.2s3.2,5.41,5.27,5.66" style="fill:#2F80ED;stroke:#263238;stroke-linecap:round;stroke-linejoin:round"></path><path d="M233.41,275.51l-4.1,8S248.06,296.4,259.19,295l1.95-11.71S243.37,280.19,233.41,275.51Z" style="fill:#2F80ED;stroke:#263238;stroke-linecap:round;stroke-linejoin:round"></path><path d="M281.45,333.08s-2.87,17.23-1.08,27.63,3.95,12.92,6.1,19.74,2.15,15.43,2.15,15.43l-6.87.72s-8.91-20.46-9.63-37.32,2.51-26.91,2.51-26.91Z" style="fill:#2F80ED;stroke:#263238;stroke-linecap:round;stroke-linejoin:round"></path><path d="M279.25,394s10.91-2.06,11.2-.59-.29,2.66,1.18,3.25-.29,2.06-.29,3.83.88,3,1.77,4.72S291,408.79,291,410a11.6,11.6,0,0,0,.89,3.84c.59,1.77.29,1.47-.89,3.24s1.48,5.31.89,7.08-2.95,2.06-2.07,3.24a12.55,12.55,0,0,1,1.77,5.9c0,1.77-2.06,5.9-2.06,5.9a20,20,0,0,1-6.49,0L276,438a70.1,70.1,0,0,1-9.43,1.18c-3.25,0-6.79-3.54-5-3.84a86.1,86.1,0,0,0,13.57-5c2.65-1.47,1.47-4.72,1.47-7.08s1.77-3.53,1.77-5.3-2.65-4.13-2.95-5.61.3-2.65.3-3.53-1.77-1.77-1.77-3,2.06-4.43,2.06-4.43a25.22,25.22,0,0,1-1.47-3,13.23,13.23,0,0,1-.3-2.94S273.64,394,279.25,394Z" style="fill:#263238;stroke:#263238;stroke-linecap:round;stroke-linejoin:round"></path><path d="M285.28,331.88a49.29,49.29,0,0,0-5,16.6c-1,9.15-1.69,17.33,1,23.1s4.09,14.2,3.61,17.8-2,10.11-2,10.11l-14.11-1.93s.67-16.87-3.66-26.73S261,342,261,335a75.45,75.45,0,0,1,.48-10.1l25.28,3.38Z" style="fill:#2F80ED;stroke:#263238;stroke-linecap:round;stroke-linejoin:round"></path><path d="M284.26,395.81s-16.22-3.24-17.69-2.06-1.77,3.83-1.77,3.83-1.48,3.24-.59,4.13,2.36,2.65,2.36,2.65-2.07,2.36-1.77,3.25,2.36,2.06,2.36,2.94-2.07,2.07-1.77,3.54,1.47,3.25,1.47,4.72-1.18,5.6-2.06,8.85-.89,3.83-3.54,6.48-14.45,3.54-14.45,5.61,12.08,4.42,20.64,2.65c6.93-1.43,13.57.59,14.16-2.06s2.35-6.2,2.06-8-2.36-3.54-2.36-5.31,2.06-5.31,2.36-6.49-2.36-3.24-2.06-4.13,2.35-.88,2.35-3.54-1.76-3.54-.88-4.71,2.95-4.13,2.95-5-1.48-2.65-1.48-2.65S285.73,397.28,284.26,395.81Z" style="fill:#263238;stroke:#263238;stroke-linecap:round;stroke-linejoin:round"></path><path d="M257.13,256.65s-5.1,9-4.93,12,5.35,14.05,5.35,15.39c0,.39-4.86,10-7.2,18.73-5.73,21.38-12.39,54.1-12.39,54.1s22.64,4.69,35.86,5.19a67.64,67.64,0,0,0,24.59-4l-8.23-45.45a28.91,28.91,0,0,0-.84-3.42L284,291.72l8.85-31.85s-9.49-16.64-16.85-17.64S258.64,254,257.13,256.65Z" style="fill:#2F80ED;stroke:#263238;stroke-linecap:round;stroke-linejoin:round"></path><path d="M297.55,354.43a86.69,86.69,0,0,1-21.73,4" style="fill:none;stroke:#263238;stroke-linecap:round;stroke-linejoin:round"></path><path d="M279.19,293.55s3.73,6.61,5.74,24.42" style="fill:none;stroke:#263238;stroke-linecap:round;stroke-linejoin:round"></path><path d="M275.74,294.7s2,9.19,2,14.65" style="fill:none;stroke:#263238;stroke-linecap:round;stroke-linejoin:round"></path><path d="M256.49,298.72s-4,11.49-4.89,18.1" style="fill:none;stroke:#263238;stroke-linecap:round;stroke-linejoin:round"></path><path d="M271.61,358.46s-6.48-.35-10.33-1" style="fill:none;stroke:#263238;stroke-linecap:round;stroke-linejoin:round"></path><path d="M256.49,357s-10.82-1-16.6-2.79" style="fill:none;stroke:#263238;stroke-linecap:round;stroke-linejoin:round"></path><path d="M259.41,252.67a9.66,9.66,0,0,1-.85-4.84c.28-2.56,8.25-11.09,14.51-12.52s8.25,1.71,8.81,3.7,1.14,5.12,0,6-11.09,3.69-14.79,5.69S259.7,253.52,259.41,252.67Z" style="fill:#2F80ED;stroke:#263238;stroke-linecap:round;stroke-linejoin:round"></path><path d="M265.67,238.73s6.21-1.8,8.25.85c6.47,8.4,10.24,22.76,10.24,33.28,0,4.27.57,6.26,1.42,6.26s6-5.4,6-5.4-.86-12.23-4-20.77-8-16.5-10.81-17.64S266.52,236.74,265.67,238.73Z" style="fill:#2F80ED;stroke:#263238;stroke-linecap:round;stroke-linejoin:round"></path><path d="M239.93,209s2.46,13.24-5.36,16.66S217.94,230,215,236.39s4.47,10,11.7,8.35,5.89-4.44,8.82,2.4,6.89,7.37,15.64,2.94,16.63-12.77,14.66-27.86S244.11,199.86,239.93,209Z" style="fill:#263238;stroke:#263238;stroke-linecap:round;stroke-linejoin:round"></path><path d="M239.91,219.09a33.87,33.87,0,0,0-.59,6.7c.21,2.36,1.57,4.38,1.46,5.81s-2.09,4.58-1.57,5,3,.56,3,.56,3.52,4.92,4.48,6.38,2.16,2.9,3.77,2.28,4.81-3.82,4.81-3.82,4.43.82,7,3a52.89,52.89,0,0,1,6.19,7.08L274,240.18s-4.81-3.37-6.61-4.88a66.07,66.07,0,0,1-4.83-4.91s2.93-4.54-.22-6.52c-2.75-1.73-3.92,1.3-4.57,2.07l-.64.77s-2.1-2.19-3.79-2.52-4.76,1.26-7.52-.4A39.2,39.2,0,0,1,239.91,219.09Z" style="fill:#fff;stroke:#263238;stroke-linecap:round;stroke-linejoin:round"></path><path d="M242.6,228.45l1.18,2.45s1.55-.28,2-1.37" style="fill:none;stroke:#263238;stroke-linecap:round;stroke-linejoin:round;stroke-width:0.75px"></path><path d="M241.59,226a1.63,1.63,0,0,1,2.4-1" style="fill:none;stroke:#263238;stroke-linecap:round;stroke-linejoin:round;stroke-width:0.75px"></path><path d="M245.5,239.26a3.9,3.9,0,0,0,2.9-2.16" style="fill:none;stroke:#263238;stroke-linecap:round;stroke-linejoin:round;stroke-width:0.75px"></path><path d="M295.54,219.38a13.37,13.37,0,0,0-7.61-3c-.14-.12-.28-.24-.42-.34-3.2-2.54-11.59-3.46-18.37-1.69a7.55,7.55,0,0,1-2.62-2.62c-2.56-4.55-5.69-8.53-13.37-8.53s-17.35,5.12-18.77,11.09c-.93,3.88,2.22,5.12,4.54,5.51a3.43,3.43,0,0,0,2.28.18s1.71,4.55,6.26,5.12,5.85-.88,10.28.87a5,5,0,0,1,3.22,3.61,16.62,16.62,0,0,1-.67,6.42c-2.12,7-7,5.75-11.2,15.12s-2.42,19.06,3.33,13.92,17.79-16.8,16.06-12.95,2.09,6.6,10,2.66,4.53,3,13,1.82C305.33,254.56,303.5,226.16,295.54,219.38Z" style="fill:#263238;stroke:#263238;stroke-linecap:round;stroke-linejoin:round"></path><path d="M254.37,228.69s-1.07-4,1.53-4.9,4.44,4.59,4.13,6.74-3.36,3.52-3.36,3.52" style="fill:#fff;stroke:#263238;stroke-linecap:round;stroke-linejoin:round"></path><path d="M235.23,276.34l-.38,6.63s-1.25,7.1,2.79,5.63c3.7-1.34,2.5-9.18,2.5-9.18" style="fill:none;stroke:#263238;stroke-linecap:round;stroke-linejoin:round;stroke-width:3px"></path><line x1="241.01" y1="175.82" x2="235.23" y2="276.34" style="fill:none;stroke:#263238;stroke-linecap:round;stroke-linejoin:round;stroke-width:2px"></line><path d="M241.27,261.29,240,256.6a3.77,3.77,0,0,0-3.86-2.87,1.53,1.53,0,0,0-1.22.56C234.07,255.61,241.27,261.29,241.27,261.29Z" style="fill:#2F80ED;stroke:#263238;stroke-linecap:round;stroke-linejoin:round"></path><path d="M239.8,258.29s-3.84-4.37-5.56-4.73a3,3,0,0,0-2.14.66,7.35,7.35,0,0,0-2.77,3.52c-.65,1.71-1.41,4.32-.89,6.28.84,3.17,3.82,4.68,5.19,5.26a15,15,0,0,0,2.52.83l3.13,5.13,7.18-7.19Z" style="fill:#2F80ED;stroke:#263238;stroke-linecap:round;stroke-linejoin:round"></path><path d="M279.36,260.3c2.05,5,1.17,16.12,0,18.75s-10.26,22.27-16.12,21.39-11.13-7.62-14.35-11.13-13-14.4-13-14.4l8.59-12L258,277.88l3.22,2.64s-.58-21.1,5.57-24.62" style="fill:#2F80ED;stroke:#263238;stroke-linecap:round;stroke-linejoin:round"></path><path d="M244.89,277.56a1.33,1.33,0,1,0-1.32,1.33A1.32,1.32,0,0,0,244.89,277.56Z" style="fill:#263238;stroke:#263238;stroke-linecap:round;stroke-linejoin:round"></path><path d="M236.6,169.12s-24.13,1.69-38,6.78-25.77,21.94-25.77,21.94,3.54,8-.11,15.13c0,0,34.66,3.1,51.52,14.27,0,0,38.52-10.9,67.2-3.85,0,0,8-13.86,23.57-17.18A111.84,111.84,0,0,0,296,186C284.54,176.74,253.76,170.67,236.6,169.12Z" style="fill:#263238"></path><g style="clip-path:url(#freepik--clip-path-2--inject-15)"><path d="M289.76,223c-5.2-13.62-20.14-45.44-48.38-52.72l-2.9,5.07a312.33,312.33,0,0,0-14.16,51.83C226.6,226.57,262.19,217,289.76,223Z" style="fill:#fff;opacity:0.15"></path><path d="M172.75,212.82c0,.05,0,.1-.07.15s34.66,3.1,51.52,14.27l.12,0a312.33,312.33,0,0,1,14.16-51.83l2.9-5.07C202,175.9,178.65,204.68,172.75,212.82Z" style="fill:#fff;opacity:0.1"></path><path d="M315,206.21A111.84,111.84,0,0,0,296,186c-10.29-8.36-36.26-14.12-53.86-16.31.43.35.92.75,1.45,1.2,26.84,8.31,41.14,38.83,46.21,52.1l1.64.37S299.39,209.53,315,206.21Z" style="fill:#fff;opacity:0.39"></path></g><path d="M236.6,169.12s-24.13,1.69-38,6.78-25.77,21.94-25.77,21.94,3.54,8-.11,15.13c0,0,34.66,3.1,51.52,14.27,0,0,38.52-10.9,67.2-3.85,0,0,8-13.86,23.57-17.18A111.84,111.84,0,0,0,296,186C284.54,176.74,253.76,170.67,236.6,169.12Z" style="fill:none;stroke:#263238;stroke-linecap:round;stroke-linejoin:round"></path><line x1="241.44" y1="170.26" x2="242.01" y2="165.44" style="fill:none;stroke:#263238;stroke-linecap:round;stroke-linejoin:round;stroke-width:2px"></line></g><g id="freepik--Rain--inject-15"><line x1="144.93" y1="119.31" x2="140.38" y2="150.84" style="fill:none;stroke:#263238;stroke-linecap:round;stroke-linejoin:round"></line><line x1="194.16" y1="140.01" x2="189.61" y2="171.54" style="fill:none;stroke:#263238;stroke-linecap:round;stroke-linejoin:round"></line><line x1="133.91" y1="195.69" x2="130.98" y2="216.01" style="fill:none;stroke:#263238;stroke-linecap:round;stroke-linejoin:round"></line><line x1="159.88" y1="169.39" x2="156.95" y2="189.72" style="fill:none;stroke:#263238;stroke-linecap:round;stroke-linejoin:round"></line><line x1="126.73" y1="245.44" x2="122.18" y2="276.98" style="fill:none;stroke:#263238;stroke-linecap:round;stroke-linejoin:round"></line><line x1="342.63" y1="152.13" x2="338.08" y2="183.66" style="fill:none;stroke:#263238;stroke-linecap:round;stroke-linejoin:round"></line><line x1="116.02" y1="319.72" x2="111.47" y2="351.26" style="fill:none;stroke:#263238;stroke-linecap:round;stroke-linejoin:round"></line><line x1="145.86" y1="396.79" x2="143.33" y2="414.3" style="fill:none;stroke:#263238;stroke-linecap:round;stroke-linejoin:round"></line><line x1="329.86" y1="125.2" x2="327.34" y2="142.72" style="fill:none;stroke:#263238;stroke-linecap:round;stroke-linejoin:round"></line><line x1="154.68" y1="240.18" x2="152.15" y2="257.69" style="fill:none;stroke:#263238;stroke-linecap:round;stroke-linejoin:round"></line><line x1="100.94" y1="284.26" x2="98.42" y2="301.78" style="fill:none;stroke:#263238;stroke-linecap:round;stroke-linejoin:round"></line><line x1="259.01" y1="334.78" x2="256.48" y2="352.29" style="fill:none;stroke:#263238;stroke-linecap:round;stroke-linejoin:round"></line><line x1="205.61" y1="407.51" x2="203.09" y2="425.03" style="fill:none;stroke:#263238;stroke-linecap:round;stroke-linejoin:round"></line><line x1="333.18" y1="254.31" x2="330.66" y2="271.83" style="fill:none;stroke:#263238;stroke-linecap:round;stroke-linejoin:round"></line><line x1="356.89" y1="197.1" x2="354.36" y2="214.62" style="fill:none;stroke:#263238;stroke-linecap:round;stroke-linejoin:round"></line><line x1="107.46" y1="172.74" x2="104.93" y2="190.25" style="fill:none;stroke:#263238;stroke-linecap:round;stroke-linejoin:round"></line><line x1="299.28" y1="296.37" x2="296.75" y2="313.89" style="fill:none;stroke:#263238;stroke-linecap:round;stroke-linejoin:round"></line><line x1="340.22" y1="307.72" x2="337.69" y2="325.24" style="fill:none;stroke:#263238;stroke-linecap:round;stroke-linejoin:round"></line><line x1="311.46" y1="392.98" x2="308.93" y2="410.5" style="fill:none;stroke:#263238;stroke-linecap:round;stroke-linejoin:round"></line><line x1="264.03" y1="133.2" x2="261.5" y2="150.72" style="fill:none;stroke:#263238;stroke-linecap:round;stroke-linejoin:round"></line><line x1="387.59" y1="152.89" x2="385.06" y2="170.41" style="fill:none;stroke:#263238;stroke-linecap:round;stroke-linejoin:round"></line><line x1="376.97" y1="226.47" x2="374.45" y2="243.98" style="fill:none;stroke:#263238;stroke-linecap:round;stroke-linejoin:round"></line><line x1="402.63" y1="302.54" x2="400.1" y2="320.06" style="fill:none;stroke:#263238;stroke-linecap:round;stroke-linejoin:round"></line><line x1="389.36" y1="357.39" x2="386.83" y2="374.91" style="fill:none;stroke:#263238;stroke-linecap:round;stroke-linejoin:round"></line><line x1="357.65" y1="267.47" x2="355.12" y2="284.99" style="fill:none;stroke:#263238;stroke-linecap:round;stroke-linejoin:round"></line><line x1="300.89" y1="148.96" x2="298.36" y2="166.48" style="fill:none;stroke:#263238;stroke-linecap:round;stroke-linejoin:round"></line><line x1="261.53" y1="189.98" x2="259" y2="207.5" style="fill:none;stroke:#263238;stroke-linecap:round;stroke-linejoin:round"></line><line x1="309.59" y1="185.42" x2="307.06" y2="202.94" style="fill:none;stroke:#263238;stroke-linecap:round;stroke-linejoin:round"></line><line x1="178.94" y1="215.78" x2="176.41" y2="233.3" style="fill:none;stroke:#263238;stroke-linecap:round;stroke-linejoin:round"></line><line x1="167.62" y1="289.26" x2="165.1" y2="306.77" style="fill:none;stroke:#263238;stroke-linecap:round;stroke-linejoin:round"></line><line x1="211.74" y1="315.65" x2="209.22" y2="333.17" style="fill:none;stroke:#263238;stroke-linecap:round;stroke-linejoin:round"></line><line x1="364.01" y1="331.18" x2="358.76" y2="367.62" style="fill:none;stroke:#263238;stroke-linecap:round;stroke-linejoin:round"></line><line x1="407.36" y1="185.21" x2="402.1" y2="221.65" style="fill:none;stroke:#263238;stroke-linecap:round;stroke-linejoin:round"></line><line x1="192.39" y1="329.41" x2="187.14" y2="365.85" style="fill:none;stroke:#263238;stroke-linecap:round;stroke-linejoin:round"></line><line x1="139.91" y1="347.49" x2="137.38" y2="365.01" style="fill:none;stroke:#263238;stroke-linecap:round;stroke-linejoin:round"></line></g></svg>