<svg xmlns="http://www.w3.org/2000/svg" viewBox="0 0 500 500"><g id="freepik--background-simple--inject-6"><path d="M54.45,206.35c23,98.29,163.12,123.11,247.44,121.56,39.52-.73,85.63-6.83,112.17-39.48,29.29-36,29.08-91.17-4.09-124.27-44.53-44.45-74.5-7-120,7.58-51.74,16.62-51.66-30-77.54-61.46C148.64,32.58,34.49,121,54.45,206.35Zm80.81-77.91-.15,0Zm-1.81-.4-.14,0ZM133,128Zm.22,0-.21,0Z" style="fill:#2F80ED"></path><path d="M54.45,206.35c23,98.29,163.12,123.11,247.44,121.56,39.52-.73,85.63-6.83,112.17-39.48,29.29-36,29.08-91.17-4.09-124.27-44.53-44.45-74.5-7-120,7.58-51.74,16.62-51.66-30-77.54-61.46C148.64,32.58,34.49,121,54.45,206.35Zm80.81-77.91-.15,0Zm-1.81-.4-.14,0ZM133,128Zm.22,0-.21,0Z" style="fill:#fff;opacity:0.9"></path></g><g id="freepik--Shadow--inject-6"><ellipse id="freepik--path--inject-6" cx="250" cy="416.24" rx="193.89" ry="11.32" style="fill:#f5f5f5"></ellipse></g><g id="freepik--Character--inject-6"><polygon points="310.4 398.26 303.14 396.22 305.94 378.87 313.2 380.92 310.4 398.26" style="fill:#ffc3bd"></polygon><polygon points="371.46 408.54 363.92 408.54 362.05 391.09 369.58 391.09 371.46 408.54" style="fill:#ffc3bd"></polygon><path d="M363.3,407.67h9.19a.66.66,0,0,1,.65.51l1.48,6.7a1.1,1.1,0,0,1-1.1,1.34c-3-.05-5.11-.22-8.84-.22-2.29,0-9.2.24-12.36.24s-3.58-3.13-2.28-3.41c5.81-1.27,10.18-3,12-4.7A1.83,1.83,0,0,1,363.3,407.67Z" style="fill:#263238"></path><path d="M303.43,395.39l7.92,2.23a.66.66,0,0,1,.48.67l-.38,6.86a1.09,1.09,0,0,1-1.41,1c-2.84-.85-6.93-2.18-10.52-3.19-4.2-1.19-4.18-1.3-9.11-2.69-3-.83-3-4.08-1.63-4,6,.36,7,.85,12.74-.8A3.65,3.65,0,0,1,303.43,395.39Z" style="fill:#263238"></path><path d="M354.19,177.51c-2.54,4.22-5.2,8.24-8,12.23s-5.74,7.89-8.91,11.7l-.59.71-.24.28-.31.35c-.21.23-.46.46-.69.67a9.44,9.44,0,0,1-3.39,1.9,11.44,11.44,0,0,1-6.1.05,25,25,0,0,1-7.86-3.73,58,58,0,0,1-11.26-10.3l3.85-4.14c1.88,1.25,3.87,2.56,5.84,3.72a64.88,64.88,0,0,0,5.91,3.21,18.49,18.49,0,0,0,5.39,1.77c.7.08,1.15-.08,1-.13a.59.59,0,0,0-.3.09s0,0-.06,0h0l.05-.07.5-.72c2.64-3.84,5.23-7.79,7.8-11.76l7.71-11.89Z" style="fill:#ffc3bd"></path><path d="M349.09,168.44c-4.37,1.68-6.47,4.47-13.67,14l11.7,13.35c1.73-1.92,6.84-8.35,9.24-10.93C360.44,180.5,357.47,165.23,349.09,168.44Z" style="fill:#263238"></path><path d="M311.73,189.1l-2.92-7.48-6.17,6.19a8.09,8.09,0,0,0,5,4.29Z" style="fill:#ffc3bd"></path><polygon points="305.41 176.87 300.62 182.54 302.64 187.81 308.81 181.62 305.41 176.87" style="fill:#ffc3bd"></polygon><polygon points="305.95 378.88 304.5 387.82 311.76 389.86 313.2 380.92 305.95 378.88" style="opacity:0.2"></polygon><polygon points="369.59 391.09 362.05 391.09 363.02 400.09 370.56 400.09 369.59 391.09" style="opacity:0.2"></polygon><path d="M391.78,175.34a168.88,168.88,0,0,0-7.53,24.11c-1.37,5.72-2.42,11.21-3.25,16.2-1.95,11.71-2.7,20.71-3.39,23.71L338,232.08c6.63-58.88,12.22-64,12.22-64a77.94,77.94,0,0,1,9.7-.11c.69,0,1.38.09,2.08.15a150.53,150.53,0,0,1,16.86,3.1c1.05.25,2.11.53,3.15.82C387.22,173.51,391.78,175.34,391.78,175.34Z" style="fill:#263238"></path><path d="M380.48,185a31.7,31.7,0,0,0,3,17.87c.24-1.13.5-2.26.78-3.41,1-4.3,2.22-8.74,3.64-13.2Z" style="opacity:0.2"></path><path d="M380.64,151.93c-2.07,5.23-4.95,15-1.83,19.29A17.14,17.14,0,0,1,364.87,174c-4.65-1-4.28-4.26-2.91-5.88,6.31-.33,7-4.85,6.7-9.25Z" style="fill:#ffc3bd"></path><path d="M375.75,154.76l-7.08,4.1a17.67,17.67,0,0,1,0,3.09c2.37.09,6-1.86,6.7-4.24A8.16,8.16,0,0,0,375.75,154.76Z" style="opacity:0.2"></path><path d="M367.72,130.85c-3.38.3-5.76,9.3-3.74,13.73S375.4,130.16,367.72,130.85Z" style="fill:#263238"></path><path d="M384.56,143.38c-2,7.2-2.86,11.52-7.36,14.46-6.77,4.43-15.05-.88-15.21-8.54-.14-6.89,3.22-17.51,11-18.86A10.21,10.21,0,0,1,384.56,143.38Z" style="fill:#ffc3bd"></path><path d="M384.33,149c-3.79,2.62-6.05-6.17-3.27-11.39-5.39-.17-18.43.94-16.19-9.83,1.55-7.43,10-6.11,13.57-3.47,2,1.44,4.69-.56,4.69-.56s-1.71,3.79-5.19,2.72c-2.38-.73-4.12.22-2.16,1.49,2.86,1.84,15.89-.17,14.61,6.37C393.61,134.78,389,145.78,384.33,149Z" style="fill:#263238"></path><path d="M389.7,135.44s-.75-3.55,4.5-1.39C392.87,134,390.4,134.23,389.7,135.44Z" style="fill:#263238"></path><path d="M369.08,151.47h0a5.52,5.52,0,0,0,4.69-1.88.2.2,0,0,0-.31-.24,5.21,5.21,0,0,1-4.36,1.74.19.19,0,0,0,0,.38Z" style="fill:#263238"></path><path d="M385.46,150.81a7.16,7.16,0,0,1-4.35,3.26c-2.42.59-3.56-1.59-2.82-3.83.66-2,2.72-4.77,5.12-4.37A3.19,3.19,0,0,1,385.46,150.81Z" style="fill:#ffc3bd"></path><path d="M302.25,385.38l12.29,3.45s11.72-41.85,19-67.79c1.93-6.88,4.89-16.56,8.43-26.83,4.47-12.93,9.8-26.87,14.12-37.76C360.63,245,364,236.87,364,236.87L338,232.08s-21.07,60-25.61,82.54C307.63,338.07,302.25,385.38,302.25,385.38Z" style="fill:#2F80ED"></path><path d="M302.25,385.38l12.29,3.45s11.72-41.85,19-67.79c1.93-6.88,4.89-16.56,8.43-26.83,4.47-12.93,9.8-26.87,14.12-37.76C360.63,245,364,236.87,364,236.87L338,232.08s-21.07,60-25.61,82.54C307.63,338.07,302.25,385.38,302.25,385.38Z" style="fill:#fff;opacity:0.30000000000000004"></path><path d="M342,294.21c4.47-12.93,9.8-26.87,14.12-37.76L354,250.27C346.62,257.28,342.17,281.05,342,294.21Z" style="opacity:0.2"></path><path d="M352,234.66s-4.41,64.65-4.14,86.74c.3,24.18,11.65,77,11.65,77h13.81s-4.32-47-4.74-70.69c-.47-26.85,9-88.29,9-88.29Z" style="fill:#2F80ED"></path><path d="M352,234.66s-4.41,64.65-4.14,86.74c.3,24.18,11.65,77,11.65,77h13.81s-4.32-47-4.74-70.69c-.47-26.85,9-88.29,9-88.29Z" style="fill:#fff;opacity:0.30000000000000004"></path><polygon points="357.88 398.64 374.14 398.64 374.14 393.79 355.97 393.47 357.88 398.64" style="fill:#263238"></polygon><polygon points="301.4 385.44 315.27 389.35 317.3 384.58 301.49 380.1 301.4 385.44" style="fill:#263238"></polygon><path d="M373.05,143c-.13.6-.55,1-.94.92s-.6-.63-.47-1.22.55-1,.94-.93S373.18,142.42,373.05,143Z" style="fill:#263238"></path><path d="M366.33,141.55c-.13.59-.55,1-.93.92s-.6-.63-.47-1.23.55-1,.93-.92S366.46,141,366.33,141.55Z" style="fill:#263238"></path><path d="M368.4,142.31a21.62,21.62,0,0,1-3.94,4.46c.84,1.21,2.84,1,2.84,1Z" style="fill:#ed847e"></path><path d="M375.61,141.3a.4.4,0,0,1-.32-.21,2.79,2.79,0,0,0-2-1.65.36.36,0,0,1-.3-.41.36.36,0,0,1,.41-.3,3.57,3.57,0,0,1,2.52,2.06.34.34,0,0,1-.17.47A.32.32,0,0,1,375.61,141.3Z" style="fill:#263238"></path><path d="M364,138.61a.33.33,0,0,1-.21-.07.36.36,0,0,1-.06-.5,3.51,3.51,0,0,1,2.94-1.42.35.35,0,0,1,.32.38.37.37,0,0,1-.39.33h0a2.85,2.85,0,0,0-2.31,1.15A.33.33,0,0,1,364,138.61Z" style="fill:#263238"></path><path d="M360.81,409a2.26,2.26,0,0,1-1.45-.39,1.09,1.09,0,0,1-.37-.94.58.58,0,0,1,.31-.51c.83-.43,3.26,1.07,3.54,1.24a.18.18,0,0,1,.08.18.19.19,0,0,1-.14.15A9.19,9.19,0,0,1,360.81,409Zm-1.12-1.56a.53.53,0,0,0-.23,0s-.1.07-.11.21a.73.73,0,0,0,.24.65,3.67,3.67,0,0,0,2.68.13A7.22,7.22,0,0,0,359.69,407.43Z" style="fill:#2F80ED"></path><path d="M362.74,408.72l-.08,0c-.78-.42-2.29-2.08-2.13-2.92a.58.58,0,0,1,.57-.46,1,1,0,0,1,.76.23c.87.71,1.05,2.89,1.06,3a.17.17,0,0,1-.08.16A.17.17,0,0,1,362.74,408.72Zm-1.52-3.06h-.08c-.23,0-.25.13-.26.18-.1.5.87,1.74,1.64,2.33a4.34,4.34,0,0,0-.89-2.36A.66.66,0,0,0,361.22,405.66Z" style="fill:#2F80ED"></path><path d="M302.44,396.19h0c-1.24-.09-3.4-.39-4-1.32a1,1,0,0,1-.09-.93.58.58,0,0,1,.41-.38c1-.23,3.52,2.06,3.8,2.32a.19.19,0,0,1,0,.21A.18.18,0,0,1,302.44,396.19Zm-3.56-2.29h-.05a.22.22,0,0,0-.16.15.65.65,0,0,0,.05.62c.33.52,1.51.92,3.18,1.11C300.9,394.9,299.47,393.84,298.88,393.9Z" style="fill:#2F80ED"></path><path d="M302.44,396.19a.16.16,0,0,1-.13,0c-.77-.64-2.06-2.7-1.7-3.48.09-.18.3-.38.78-.3a1.3,1.3,0,0,1,.87.56c.71,1,.35,3,.34,3.12a.18.18,0,0,1-.12.13Zm-1.32-3.48c-.14,0-.17.08-.18.11-.22.47.61,2,1.35,2.83a4.22,4.22,0,0,0-.32-2.51,1,1,0,0,0-.64-.42Z" style="fill:#2F80ED"></path><path d="M347.49,243.3l-18.11-9.51c2.5,10.9-7.93,17.52-16.58,21.05-4.13,1.68-3.22,7.17,1.59,9.69l11.77,6.19C340.45,278.22,347.49,243.3,347.49,243.3Z" style="fill:#263238"></path><path d="M351.15,245.22,318,227.81A22.17,22.17,0,0,1,308.7,198h0a22.18,22.18,0,0,1,29.85-9.29l33.16,17.41A22.17,22.17,0,0,1,381,235.93h0A22.17,22.17,0,0,1,351.15,245.22Z" style="fill:#2F80ED"></path><path d="M351.15,245.22,318,227.81A22.17,22.17,0,0,1,308.7,198h0a22.18,22.18,0,0,1,29.85-9.29l33.16,17.41A22.17,22.17,0,0,1,381,235.93h0A22.17,22.17,0,0,1,351.15,245.22Z" style="opacity:0.30000000000000004"></path><path d="M370.42,213.77l-9.4-4.94a2.2,2.2,0,0,1-.93-3h0a2.21,2.21,0,0,1,3-.92l9.4,4.94a2.2,2.2,0,0,1,.92,3h0A2.19,2.19,0,0,1,370.42,213.77Z" style="fill:#fff"></path><path d="M354.81,205.58l-4.7-2.47a2.2,2.2,0,0,1-.92-3h0a2.2,2.2,0,0,1,3-.92l4.7,2.46a2.2,2.2,0,0,1,.92,3h0A2.2,2.2,0,0,1,354.81,205.58Z" style="fill:#fff"></path><path d="M257.7,217.18l69.58,24.39c5.85,3.06,33.71-50,27.87-53.06l-59.58-43.45Z" style="fill:#2F80ED"></path><path d="M276.89,193.25a162.45,162.45,0,0,1-11,16.94l69.26,24.54a143.7,143.7,0,0,0,9-14.55Z" style="opacity:0.2"></path><path d="M282,183.94c-10.46,19.92-21.35,34.8-24.32,33.24s3.1-19,13.56-38.88,21.34-34.8,24.31-33.24S292.47,164,282,183.94Z" style="fill:#263238"></path><path d="M392.42,179.5c.84,1.25,1.5,2.31,2.18,3.5s1.32,2.31,1.95,3.49c1.25,2.36,2.4,4.77,3.43,7.26a71.18,71.18,0,0,1,2.73,7.68,50.89,50.89,0,0,1,1.73,8.23c.05.36.08.72.11,1.08l.06.54,0,.49a5.42,5.42,0,0,1,0,.57,9.12,9.12,0,0,1-1.06,4.08,12.9,12.9,0,0,1-4,4.39,31,31,0,0,1-7.92,3.86,69.79,69.79,0,0,1-15.59,3.24l-1.17-5.54a125.85,125.85,0,0,0,13.37-5.72,26,26,0,0,0,5.33-3.47c.65-.56,1-1.19.95-1.24s-.14.17-.16.43c0,0,0,.06,0,.09v0l-.08-.4c0-.27-.09-.53-.15-.8a62,62,0,0,0-4.55-13c-1-2.16-2.07-4.28-3.19-6.4-.56-1.05-1.14-2.1-1.74-3.13s-1.23-2.11-1.77-3Z" style="fill:#ffc3bd"></path><path d="M399.56,184.27a21.27,21.27,0,0,0-4.88-7c-3.86-3.7-10.65-3.64-13.7,1a8.15,8.15,0,0,0-.89,1.8,12.32,12.32,0,0,0,.55,8c2.23,6,4.69,12,7.38,17.82l0,0,15.34-12.35Z" style="fill:#263238"></path><path d="M377.45,222.85l-6.55-4-1.09,9.57s6.33,2.13,7.83-1.09Z" style="fill:#ffc3bd"></path><polygon points="363.9 219.96 364.32 227.15 369.81 228.46 370.9 218.89 363.9 219.96" style="fill:#ffc3bd"></polygon></g><g id="freepik--twitter-icons--inject-6"><path d="M223.32,138.67a17.33,17.33,0,0,0,6.58-2.56,15,15,0,0,0,6-7.79,19.26,19.26,0,0,1-10.22.94,23.25,23.25,0,0,0,13.86-7.51,18,18,0,0,0,4.27-11,23.56,23.56,0,0,1-12.82,4.7,23.74,23.74,0,0,0,10.23-11.65c1.56-4.08,1.94-7.61.88-10.38-6.88,7.41-16.8,10.53-29,10.66,0-1.42,0-2.87.08-4.32h0A15.07,15.07,0,0,0,185.31,91,30.76,30.76,0,0,1,178,86.77a16.15,16.15,0,0,0,4.62,7.64,27.21,27.21,0,0,1-6.45-2.63,16.06,16.06,0,0,0,6.52,7.32,46.41,46.41,0,0,0,57.22,52.55A42.05,42.05,0,0,1,223.32,138.67Z" style="fill:#2F80ED"></path><path d="M111.77,195.73a5.28,5.28,0,0,0,.79-2,4.55,4.55,0,0,0-.52-3,5.86,5.86,0,0,1-1.92,2.52,7.18,7.18,0,0,0,1.19-4.72,5.61,5.61,0,0,0-1.62-3.28,7.26,7.26,0,0,1-1.61,3.91,7.35,7.35,0,0,0-.51-4.77,4.62,4.62,0,0,0-2.19-2.37c.25,3.12-1.11,6-3.63,8.84-.32-.29-.65-.6-1-.92h0A4.66,4.66,0,0,0,93,194.43a10,10,0,0,1-2.48.79,5,5,0,0,0,2.71.54,9.1,9.1,0,0,1-2,.92,4.91,4.91,0,0,0,3,0,14.33,14.33,0,0,0,23.93-2.07A13,13,0,0,1,111.77,195.73Z" style="fill:#2F80ED"></path><path d="M234.17,193a9.93,9.93,0,0,0,1.53-3.76,8.68,8.68,0,0,0-.89-5.58,11.12,11.12,0,0,1-3.64,4.64,13.34,13.34,0,0,0,2.32-8.75,10.36,10.36,0,0,0-2.93-6.13,13.51,13.51,0,0,1-3.07,7.22,13.7,13.7,0,0,0-.85-8.87c-1.1-2.26-2.42-3.8-4-4.45.39,5.79-2.21,11.17-7,16.33-.6-.56-1.19-1.13-1.78-1.73h0a8.66,8.66,0,0,0-14.65,8.19,17.87,17.87,0,0,1-4.62,1.41,9.23,9.23,0,0,0,5,1.07,15.45,15.45,0,0,1-3.64,1.66,9.13,9.13,0,0,0,5.63.16,26.67,26.67,0,0,0,44.52-3.25A24.16,24.16,0,0,1,234.17,193Z" style="fill:#2F80ED"></path><path d="M156.21,164.44a12.21,12.21,0,0,0,3.51-3.43,10.47,10.47,0,0,0,1.72-6.62,13.33,13.33,0,0,1-6.28,3.38A16.16,16.16,0,0,0,162,149.2a12.6,12.6,0,0,0-.28-8.21,16.41,16.41,0,0,1-6.91,6.51,16.61,16.61,0,0,0,3.37-10.24c-.12-3-.84-5.39-2.27-6.88-2.38,6.62-7.87,11.31-15.64,14.73-.4-.91-.77-1.84-1.13-2.79h0a10.47,10.47,0,0,0-20.21,2,21.57,21.57,0,0,1-5.8-.68,11.26,11.26,0,0,0,5,3.62,18.22,18.22,0,0,1-4.83.07,11.05,11.05,0,0,0,6.16,2.91,32.26,32.26,0,0,0,50.9,18A29.29,29.29,0,0,1,156.21,164.44Z" style="fill:#2F80ED"></path><path d="M156.21,164.44a12.21,12.21,0,0,0,3.51-3.43,10.47,10.47,0,0,0,1.72-6.62,13.33,13.33,0,0,1-6.28,3.38A16.16,16.16,0,0,0,162,149.2a12.6,12.6,0,0,0-.28-8.21,16.41,16.41,0,0,1-6.91,6.51,16.61,16.61,0,0,0,3.37-10.24c-.12-3-.84-5.39-2.27-6.88-2.38,6.62-7.87,11.31-15.64,14.73-.4-.91-.77-1.84-1.13-2.79h0a10.47,10.47,0,0,0-20.21,2,21.57,21.57,0,0,1-5.8-.68,11.26,11.26,0,0,0,5,3.62,18.22,18.22,0,0,1-4.83.07,11.05,11.05,0,0,0,6.16,2.91,32.26,32.26,0,0,0,50.9,18A29.29,29.29,0,0,1,156.21,164.44Z" style="opacity:0.30000000000000004"></path><path d="M269.54,151.66a5.45,5.45,0,0,0,1.95-.95,4.63,4.63,0,0,0,1.65-2.55,6,6,0,0,1-3.11.55,7.17,7.17,0,0,0,4.06-2.66,5.47,5.47,0,0,0,1-3.48,7.33,7.33,0,0,1-3.82,1.76,7.28,7.28,0,0,0,2.85-3.83,4.56,4.56,0,0,0,0-3.21c-1.92,2.45-4.89,3.66-8.63,4,0-.44-.07-.89-.09-1.33h0a4.64,4.64,0,0,0-8.77-2,9.62,9.62,0,0,1-2.35-1.1,5,5,0,0,0,1.62,2.23,8.61,8.61,0,0,1-2.05-.65,4.94,4.94,0,0,0,2.18,2.09,14.3,14.3,0,0,0,11.84,15.25,14.15,14.15,0,0,0,7-.57A13,13,0,0,1,269.54,151.66Z" style="fill:#2F80ED"></path><path d="M269.54,151.66a5.45,5.45,0,0,0,1.95-.95,4.63,4.63,0,0,0,1.65-2.55,6,6,0,0,1-3.11.55,7.17,7.17,0,0,0,4.06-2.66,5.47,5.47,0,0,0,1-3.48,7.33,7.33,0,0,1-3.82,1.76,7.28,7.28,0,0,0,2.85-3.83,4.56,4.56,0,0,0,0-3.21c-1.92,2.45-4.89,3.66-8.63,4,0-.44-.07-.89-.09-1.33h0a4.64,4.64,0,0,0-8.77-2,9.62,9.62,0,0,1-2.35-1.1,5,5,0,0,0,1.62,2.23,8.61,8.61,0,0,1-2.05-.65,4.94,4.94,0,0,0,2.18,2.09,14.3,14.3,0,0,0,11.84,15.25,14.15,14.15,0,0,0,7-.57A13,13,0,0,1,269.54,151.66Z" style="opacity:0.30000000000000004"></path><path d="M176.41,224a7.64,7.64,0,0,0,1.28-2.87,6.7,6.7,0,0,0-.55-4.36,8.71,8.71,0,0,1-3,3.53,10.4,10.4,0,0,0,2-6.76,8.08,8.08,0,0,0-2.13-4.84,10.53,10.53,0,0,1-2.57,5.54,10.65,10.65,0,0,0-.44-6.92,6.6,6.6,0,0,0-3-3.57c.15,4.52-2,8.64-5.83,12.53-.45-.45-.9-.91-1.34-1.39h0a6.74,6.74,0,0,0-11.6,6,13.33,13.33,0,0,1-3.62,1,7.18,7.18,0,0,0,3.88,1,12,12,0,0,1-2.88,1.2,7.14,7.14,0,0,0,4.37.27,20.75,20.75,0,0,0,34.7-1.42A18.84,18.84,0,0,1,176.41,224Z" style="fill:#2F80ED"></path><path d="M176.41,224a7.64,7.64,0,0,0,1.28-2.87,6.7,6.7,0,0,0-.55-4.36,8.71,8.71,0,0,1-3,3.53,10.4,10.4,0,0,0,2-6.76,8.08,8.08,0,0,0-2.13-4.84,10.53,10.53,0,0,1-2.57,5.54,10.65,10.65,0,0,0-.44-6.92,6.6,6.6,0,0,0-3-3.57c.15,4.52-2,8.64-5.83,12.53-.45-.45-.9-.91-1.34-1.39h0a6.74,6.74,0,0,0-11.6,6,13.33,13.33,0,0,1-3.62,1,7.18,7.18,0,0,0,3.88,1,12,12,0,0,1-2.88,1.2,7.14,7.14,0,0,0,4.37.27,20.75,20.75,0,0,0,34.7-1.42A18.84,18.84,0,0,1,176.41,224Z" style="fill:#fff;opacity:0.4"></path><path d="M81.69,150.74a7.6,7.6,0,0,0,2.17-2.13,6.53,6.53,0,0,0,1-4.13A8.33,8.33,0,0,1,81,146.61a10,10,0,0,0,4.24-5.37,7.77,7.77,0,0,0-.19-5.11,10.22,10.22,0,0,1-4.29,4.07,10.35,10.35,0,0,0,2.07-6.38,6.44,6.44,0,0,0-1.43-4.28c-1.47,4.12-4.87,7.07-9.71,9.22-.24-.57-.48-1.15-.71-1.74h0a6.52,6.52,0,0,0-12.58,1.29,13.33,13.33,0,0,1-3.62-.41,7,7,0,0,0,3.16,2.24,11.78,11.78,0,0,1-3,.06A6.87,6.87,0,0,0,58.75,142a20.1,20.1,0,0,0,22.63,15,19.86,19.86,0,0,0,9.13-3.93A18.22,18.22,0,0,1,81.69,150.74Z" style="fill:#2F80ED"></path><path d="M81.69,150.74a7.6,7.6,0,0,0,2.17-2.13,6.53,6.53,0,0,0,1-4.13A8.33,8.33,0,0,1,81,146.61a10,10,0,0,0,4.24-5.37,7.77,7.77,0,0,0-.19-5.11,10.22,10.22,0,0,1-4.29,4.07,10.35,10.35,0,0,0,2.07-6.38,6.44,6.44,0,0,0-1.43-4.28c-1.47,4.12-4.87,7.07-9.71,9.22-.24-.57-.48-1.15-.71-1.74h0a6.52,6.52,0,0,0-12.58,1.29,13.33,13.33,0,0,1-3.62-.41,7,7,0,0,0,3.16,2.24,11.78,11.78,0,0,1-3,.06A6.87,6.87,0,0,0,58.75,142a20.1,20.1,0,0,0,22.63,15,19.86,19.86,0,0,0,9.13-3.93A18.22,18.22,0,0,1,81.69,150.74Z" style="fill:#fff;opacity:0.4"></path><path d="M140.7,97.65a10.51,10.51,0,0,0,4-1.42,9,9,0,0,0,3.7-4.58,11.69,11.69,0,0,1-6.16.42,14,14,0,0,0,8.42-4.31,10.75,10.75,0,0,0,2.7-6.53,14.06,14.06,0,0,1-7.74,2.64A14.21,14.21,0,0,0,151.87,77c1-2.43,1.25-4.53.66-6.2-4.22,4.34-10.19,6.07-17.5,6,0-.86.05-1.72.1-2.59h0a9,9,0,0,0-16.56-5.64A18.15,18.15,0,0,1,114.26,66,9.76,9.76,0,0,0,117,70.66,16.35,16.35,0,0,1,113.11,69a9.58,9.58,0,0,0,3.8,4.47,27.78,27.78,0,0,0,33.55,32.2A25.16,25.16,0,0,1,140.7,97.65Z" style="fill:#2F80ED"></path><path d="M140.7,97.65a10.51,10.51,0,0,0,4-1.42,9,9,0,0,0,3.7-4.58,11.69,11.69,0,0,1-6.16.42,14,14,0,0,0,8.42-4.31,10.75,10.75,0,0,0,2.7-6.53,14.06,14.06,0,0,1-7.74,2.64A14.21,14.21,0,0,0,151.87,77c1-2.43,1.25-4.53.66-6.2-4.22,4.34-10.19,6.07-17.5,6,0-.86.05-1.72.1-2.59h0a9,9,0,0,0-16.56-5.64A18.15,18.15,0,0,1,114.26,66,9.76,9.76,0,0,0,117,70.66,16.35,16.35,0,0,1,113.11,69a9.58,9.58,0,0,0,3.8,4.47,27.78,27.78,0,0,0,33.55,32.2A25.16,25.16,0,0,1,140.7,97.65Z" style="fill:#fff;opacity:0.4"></path></g></svg>